PathFileType	4	(X/Y/Z)	/Users/itak/Documents/Research/Walk-IL/dataset/trc/00326_00011.trc
DataRate	CameraRate	NumFrames	NumMarkers	Units	OrigDataRate	OrigDataStartFrame	OrigNumFrames
100.000000	100.000000	4	55	mm	100.000000	247	494
Frame#	Time	RPSI			LPSI			L3			STRN			T10			C7			CLAV			RBAK			LBAK			LSHO			LUPA			LAEL			LAOL			LWTS			LWPS			LFRA			LHPS			LHTS			RSHO			RUPA			RAEL			RAOL			RWTS			RWPS			RFRA			RIFD			RHTS			RHPS			RBHD			LFHD			RFHD			LBHD			LHIP			RHIP			RASI			LASI			LKNE			LTHI			LANK			LTIP			LTOE			LMT1			LMT5			LHEE			RKNE			RTHI			RANK			RTIP			RTOE			RMT1			RMT5			RHEE			LIFD			*53			*54			
		X1	Y1	Z1	X2	Y2	Z2	X3	Y3	Z3	X4	Y4	Z4	X5	Y5	Z5	X6	Y6	Z6	X7	Y7	Z7	X8	Y8	Z8	X9	Y9	Z9	X10	Y10	Z10	X11	Y11	Z11	X12	Y12	Z12	X13	Y13	Z13	X14	Y14	Z14	X15	Y15	Z15	X16	Y16	Z16	X17	Y17	Z17	X18	Y18	Z18	X19	Y19	Z19	X20	Y20	Z20	X21	Y21	Z21	X22	Y22	Z22	X23	Y23	Z23	X24	Y24	Z24	X25	Y25	Z25	X26	Y26	Z26	X27	Y27	Z27	X28	Y28	Z28	X29	Y29	Z29	X30	Y30	Z30	X31	Y31	Z31	X32	Y32	Z32	X33	Y33	Z33	X34	Y34	Z34	X35	Y35	Z35	X36	Y36	Z36	X37	Y37	Z37	X38	Y38	Z38	X39	Y39	Z39	X40	Y40	Z40	X41	Y41	Z41	X42	Y42	Z42	X43	Y43	Z43	X44	Y44	Z44	X45	Y45	Z45	X46	Y46	Z46	X47	Y47	Z47	X48	Y48	Z48	X49	Y49	Z49	X50	Y50	Z50	X51	Y51	Z51	X52	Y52	Z52	X53	Y53	Z53	X54	Y54	Z54	X55	Y55	Z55	

248	2.47	-420.5089721679688	937.6972045898438	129.0706939697266	-434.5855102539062	943.0843505859375	0.3210992515087128	-433.9952087402344	1001.465454101562	55.01333999633789	-204.5158538818359	1180.72802734375	35.01129150390625	-447.58544921875	1118.216918945312	30.72387313842773	-402.2974243164062	1363.90869140625	10.10301399230957	-246.3158264160156	1306.531616210938	29.22875785827637	-453.6095275878906	1226.074096679688	74.59160614013672	-405.0628662109375	1325.627075195312	-93.66553497314453	-314.0485534667969	1343.078125	-138.7817993164062	-309.1688537597656	1227.063842773438	-212.2274932861328	-231.5705261230469	1039.277954101562	-243.760498046875	-293.5827331542969	1000.162719726562	-201.3701782226562	-40.18910217285156	885.3759765625	-176.9044952392578	-55.65984725952148	855.5254516601562	-237.5087127685547	-170.3379974365234	955.9749755859375	-247.5382995605469	-14.79548263549805	799.4923095703125	-229.296142578125	20.13708877563477	834.6430053710938	-189.1681365966797	-357.4225158691406	1350.798095703125	178.7247467041016	-381.2044982910156	1288.625	239.5611877441406	-439.0279846191406	1026.405029296875	263.3041687011719	-453.1615905761719	1026.982543945312	169.6387481689453	-397.8211059570312	773.69384765625	247.4467468261719	-449.0673217773438	780.0072021484375	306.0480651855469	-436.0361633300781	958.629150390625	279.8908996582031	-459.9766540527344	610.52490234375	259.7377624511719	-424.7012939453125	665.82080078125	260.9430236816406	-470.0019226074219	696.9718017578125	304.9202270507812	-373.9793701171875	1562.55322265625	94.66789245605469	-203.7308807373047	1592.422607421875	-22.7641487121582	-215.2823028564453	1594.304443359375	77.63343048095703	-383.8965148925781	1551.371337890625	-50.16184234619141	-367.2967224121094	883.6157836914062	-116.0780944824219	-321.5961608886719	889.992431640625	225.3044891357422	-229.1736297607422	922.8626098632812	161.7931060791016	-237.8371276855469	905.947265625	-79.57170104980469	-395.0018005371094	436.3428344726562	-87.08751678466797	-371.4343872070312	572.2998046875	-103.0463562011719	-706.8648071289062	122.5539627075195	-36.32411193847656	-551.7919921875	269.4202270507812	-74.0057373046875	-543.7659301757812	40.57310104370117	27.568359375	-596.3698120117188	51.89284133911133	68.18032073974609	-609.7662963867188	48.98122787475586	-48.30959320068359	-728.818603515625	151.1977233886719	30.3069896697998	-128.9621734619141	457.6871643066406	155.2439727783203	-191.6561889648438	706.1122436523438	210.1214294433594	-113.0407867431641	44.35100555419922	105.4826583862305	-94.65657043457031	341.15625	136.8225402832031	78.61904907226562	61.80489349365234	52.62446212768555	24.23711776733398	45.44809341430664	11.26755714416504	-12.32997417449951	37.17440032958984	120.6056747436523	-162.8205413818359	43.05176544189453	56.66985321044922	64.95229339599609	766.2398681640625	-165.416748046875	nan	nan	nan	nan	nan	nan	
249	2.48	-407.2735290527344	939.0761108398438	129.4208831787109	-421.2709655761719	943.8469848632812	0.5576521158218384	-420.2165222167969	1001.78515625	55.59932708740234	-192.4831085205078	1182.524291992188	35.36512756347656	-435.1685485839844	1118.42919921875	32.01290512084961	-391.408447265625	1364.668701171875	11.64974880218506	-234.9771423339844	1308.109130859375	29.89687919616699	-441.4866638183594	1226.493530273438	76.44898986816406	-394.4724731445312	1326.495971679688	-91.97176361083984	-303.8329162597656	1344.286743164062	-137.7638244628906	-299.9166259765625	1228.027221679688	-210.9798278808594	-225.4084930419922	1038.872436523438	-242.0365447998047	-288.7370910644531	1001.308532714844	-199.6545562744141	-38.11721420288086	879.521240234375	-174.8667907714844	-54.27847671508789	850.399658203125	-235.6277923583984	-166.1000213623047	953.9712524414062	-245.7475738525391	-15.17670059204102	793.0789184570312	-227.5153350830078	20.57631301879883	826.8909912109375	-187.0082702636719	-345.4785766601562	1351.860473632812	179.9729309082031	-368.2161865234375	1289.484130859375	241.1446075439453	-423.0336608886719	1026.605346679688	265.4109802246094	-438.3639526367188	1027.166015625	171.9503936767578	-379.2187194824219	774.388427734375	248.1617126464844	-429.591796875	779.8922729492188	307.6943969726562	-419.0035400390625	958.7498168945312	281.7904052734375	-439.6654357910156	610.427978515625	260.6002807617188	-404.7898254394531	665.5014038085938	261.8400268554688	-449.7106018066406	696.6047973632812	306.4481201171875	-363.018310546875	1563.932739257812	95.52740478515625	-193.2433013916016	1593.617797851562	-22.6226634979248	-204.4104309082031	1595.721435546875	77.81893920898438	-373.4943542480469	1552.409912109375	-49.25275802612305	-353.3325805664062	884.2451782226562	-115.5294036865234	-308.6806030273438	891.45947265625	226.0161285400391	-216.1682281494141	924.1800537109375	162.6910705566406	-224.5951995849609	906.89208984375	-78.44554138183594	-376.502685546875	436.1217346191406	-88.69796752929688	-354.2109069824219	571.9786987304688	-103.7939224243164	-696.859375	131.6085052490234	-38.55934906005859	-537.5784912109375	273.2933959960938	-75.97764587402344	-543.0890502929688	39.71222305297852	27.43465614318848	-592.8325805664062	54.86167526245117	67.25390625	-606.0076293945312	50.5994987487793	-49.25276184082031	-717.1171264648438	162.1777954101562	27.64758491516113	-118.6338500976562	457.8827209472656	155.3478088378906	-179.5931396484375	706.5718383789062	210.5419616699219	-112.0405502319336	44.93672943115234	105.3050689697266	-86.34056091308594	340.639404296875	136.5081329345703	80.34952545166016	57.34581756591797	51.52460479736328	25.31218910217285	42.27409744262695	10.48071479797363	-11.56056785583496	36.01755142211914	119.9550933837891	-161.9104766845703	44.25973892211914	56.37217712402344	63.22436904907227	757.1665649414062	-163.4141845703125	nan	nan	nan	nan	nan	nan	
250	2.49	-394.308837890625	940.5223388671875	129.7177276611328	-408.2126159667969	944.6713256835938	0.7495225667953491	-406.5761413574219	1002.345397949219	56.25437164306641	-180.5413970947266	1184.45263671875	35.70942306518555	-422.7601318359375	1118.809326171875	33.3048095703125	-380.5440979003906	1365.58740234375	13.16694450378418	-223.7040863037109	1309.8203125	30.53277015686035	-429.4283752441406	1227.083984375	78.28445434570312	-383.908935546875	1327.518798828125	-90.29735565185547	-293.6533508300781	1345.656494140625	-136.7661743164062	-290.7121887207031	1229.158813476562	-209.7301635742188	-219.4761352539062	1038.626586914062	-240.1336669921875	-284.0266418457031	1002.701110839844	-197.6507873535156	-36.58931350708008	873.5293579101562	-172.9881134033203	-53.66539764404297	845.1240844726562	-233.8114471435547	-162.3156127929688	952.0255737304688	-243.8640747070312	-16.52702331542969	786.4642944335938	-225.8482666015625	20.19893074035645	818.8357543945312	-185.0817260742188	-333.5884399414062	1353.1015625	181.1777954101562	-355.2850646972656	1290.535034179688	242.679931640625	-406.8113403320312	1027.00537109375	267.6206970214844	-423.406982421875	1027.460693359375	174.3926391601562	-359.9837951660156	775.39306640625	249.0343780517578	-409.4772644042969	779.9971923828125	309.4569396972656	-401.6385498046875	959.0703735351562	283.7908935546875	-418.4071655273438	610.5215454101562	261.6300659179688	-383.9830322265625	665.6102905273438	262.9395446777344	-428.5902099609375	696.4365844726562	308.1542053222656	-352.0871276855469	1565.451782226562	96.36502838134766	-182.7896270751953	1594.924194335938	-22.49975967407227	-193.5684204101562	1597.256225585938	77.98255920410156	-363.1421508789062	1553.582641601562	-48.36028289794922	-339.5406188964844	885.0187377929688	-114.9964981079102	-296.0357360839844	892.9946899414062	226.7013397216797	-203.4015197753906	925.6002807617188	163.6516723632812	-211.5366516113281	908.0780639648438	-77.26905822753906	-357.0833129882812	435.9141540527344	-90.62799072265625	-336.3837280273438	571.709716796875	-104.7338409423828	-685.447509765625	141.0839996337891	-41.02212905883789	-522.194580078125	277.2299499511719	-78.17687225341797	-541.77783203125	38.64612579345703	27.16798400878906	-588.543701171875	58.29365921020508	66.15360260009766	-601.54541015625	52.74534606933594	-50.27404022216797	-703.9124755859375	173.4230194091797	24.7844352722168	-108.8608474731445	457.980224609375	155.5934143066406	-167.8744812011719	707.1083984375	211.026611328125	-111.1243286132812	45.51605224609375	105.1621398925781	-78.64157867431641	340.1000366210938	136.3489685058594	81.79287719726562	53.54659652709961	50.60971832275391	26.1871509552002	39.75825500488281	9.815694808959961	-10.87606430053711	35.19327926635742	119.4678115844727	-161.0935211181641	45.34807586669922	56.14865875244141	60.44331741333008	747.728515625	-161.699951171875	nan	nan	nan	nan	nan	nan	
251	2.5	-381.6611938476562	942.0001831054688	129.9522247314453	-395.4623718261719	945.5079956054688	0.8889278173446655	-393.1683044433594	1003.110778808594	56.96052551269531	-168.7168884277344	1186.455932617188	36.04773712158203	-410.3957824707031	1119.351440429688	34.59341049194336	-369.707275390625	1366.64404296875	14.64592266082764	-212.5076293945312	1311.61376953125	31.13015174865723	-417.4546508789062	1227.828857421875	80.08307647705078	-373.3840026855469	1328.671142578125	-88.65801239013672	-283.509521484375	1347.138671875	-135.7975006103516	-281.5515747070312	1230.407836914062	-208.4881134033203	-213.7446899414062	1038.512451171875	-238.0504608154297	-279.3917846679688	1004.282958984375	-195.3666534423828	-35.60985565185547	867.4168701171875	-171.2680969238281	-53.7979850769043	839.7333984375	-232.0699462890625	-158.9604339599609	950.13037109375	-241.8942108154297	-18.82067108154297	779.7097778320312	-224.2918090820312	19.0223388671875	810.5482177734375	-183.3954315185547	-321.7566833496094	1354.482055664062	182.3357391357422	-342.4259338378906	1291.737182617188	244.1575164794922	-390.3972473144531	1027.5791015625	269.9250793457031	-408.3309020996094	1027.832397460938	176.954345703125	-340.1616516113281	776.6932373046875	250.0612030029297	-388.7738342285156	780.3138427734375	311.3207397460938	-383.9863891601562	959.5673217773438	285.8837585449219	-396.2143249511719	610.8095092773438	262.8392944335938	-362.2943115234375	666.179443359375	264.2557983398438	-406.6785888671875	696.4688720703125	310.0250854492188	-341.1960144042969	1567.070556640625	97.17378997802734	-172.3759613037109	1596.317504882812	-22.3927116394043	-182.7660522460938	1598.880249023438	78.12458038330078	-352.8367614746094	1554.848754882812	-47.48744201660156	-325.9968566894531	885.872314453125	-114.4870300292969	-283.6911010742188	894.5756225585938	227.3557281494141	-190.9150085449219	927.1068725585938	164.660400390625	-198.7042694091797	909.4557495117188	-76.07129669189453	-336.8489990234375	435.7447814941406	-92.79911804199219	-318.0450134277344	571.4904174804688	-105.8225708007812	-672.6353759765625	150.876953125	-43.67595291137695	-505.6857604980469	281.1820678710938	-80.55784606933594	-539.605712890625	37.41820907592773	26.71012306213379	-583.3403930664062	62.19193649291992	64.84888458251953	-596.2405395507812	55.509521484375	-51.39616394042969	-689.2583618164062	184.7749633789062	21.77592277526855	-99.69713592529297	457.9828796386719	155.9627685546875	-156.5207366943359	707.7260131835938	211.5601806640625	-110.3151016235352	46.05047988891602	105.0370407104492	-71.57216644287109	339.5194396972656	136.3216247558594	82.94618988037109	50.38272476196289	49.85369873046875	26.86388397216797	37.83438110351562	9.248047828674316	-10.28724002838135	34.64641189575195	119.1141891479492	-160.3919982910156	46.28669738769531	55.98386001586914	56.61757278442383	738.0152587890625	-160.25537109375	nan	nan	nan	nan	nan	nan	
